<mxfile host="app.diagrams.net" agent="Mozilla/5.0 (Windows NT 10.0; Win64; x64) AppleWebKit/537.36 (KHTML, like Gecko) Chrome/131.0.0.0 Safari/537.36" version="26.0.16">
  <diagram name="Page-1" id="e4VtJf4IHfclm1NGiPwb">
    <mxGraphModel dx="880" dy="434" grid="1" gridSize="10" guides="1" tooltips="1" connect="1" arrows="1" fold="1" page="1" pageScale="1" pageWidth="850" pageHeight="1100" math="0" shadow="0">
      <root>
        <mxCell id="0" />
        <mxCell id="1" parent="0" />
        <mxCell id="7Hq6g_Avix6fBymQImAf-1" value="" style="shape=image;verticalLabelPosition=bottom;labelBackgroundColor=default;verticalAlign=top;aspect=fixed;imageAspect=0;image=data:image/webp,UklGRtZFAABXRUJQVlA4IMpFAADQtACdASqSABgBPjESh0KiIQuN22oQAYJZTHAPwAmAqwH9u8jPOAPUB+AHiA/oHml/lfqj/IP83/Wv9H6AvTX9y9i37BiDtD/jj519ofxvOp6Xx79pr3dlb9RH8r7mfn5/wv+37UP7t6injxetjzHfsH+5PvG/9f9nfeZ/WvUM/Yfraf8N6oP7YetT/7f3A+Iz/B/9X9xfZ9wfjhj+A/IbzR/H/mf7l/ef2K/uv/c/1Xx3f3ngI6l/0n5Me4v8r+4X2P+6fsL/dP2a+7n87/qvzP/xv7He1/ya/ovzA/tnyC/j/8z/s39h/Y/+3/t79Yv0P+3/I/xSdy/xH+g/Lf4C/VP5V/ev7n/fP8R/f/3F+jT6P/Hfj1+8Pyp+j/2T/GflD/bv/D+AP8Z/lv94/v37J/4H//fUv+m/3n5/+q79p/1P+0/yP5e/YH/H/6P/qP7t/j/+3/pv//87/9t/kf9V/y/9P/9vgl+i/3n/ff4f/Pf9z/If///0/oP/KP6J/pP7v/l/+Z/iP///x/ug/+ft2/an/7e51+tn/G/PpQtkze0RJNZkbFVL5YfZEkcmFBl7S7RpyrM9D22d58C7c11Xf1r7VZnwEOLEYtw8w2RKj+QJYlARZIybp+mKCXE9MzDz2TK3vrFRWd7lxGt77jiwx54JzywA1OwyWoR+XyoAeIMpLiT1ERh42oCwvLFGeJkQp49Dj8TCukpAMYwzXVEKGGD2o4LcoI6zQ1p95XL6qDXVKzRh4gZDtF/twu+41egpzFBocwWuWRRx8k2P+DGsNIuyUJ5ifatHHst/QP8gArmBnw8C5/N6s1T79FvPMPhtM/NOICXFPzcGpYy3Dj4qdVULliXXflBxnIwUjYncGI/KfCI7PbdewQp/OyqyEdfm+Y5bHrezy6AOgBd6ZU1Dn9ppVLIircW6mq+DHe6oftpZXr8nC5/SMkDyULXnXdNLuWgHFRXOHvxnreL5BriMetZa4DtBN8XdICGOT5+XhIquP2FshTmIwzzmzyOZGItD8kyf97iXhgCpDEny22aSmcnDK77pk3RBMtRuaiPpahvTGDBCKNDfGeii1xA7BLZrrHJ6S1C4rP68VqHt/ICIkjyrE+Cr+JT8SddgSO5wLssud1w+vU5tjnmPb9g8fPQeu1zMNSfdQf+1rK/jjYl2SauYp47+U4MX71sVPsl5+BQv6geHCJKiLn5UeAomXJNxaH25UaBN6PFuihy/A9+cIFCBzjmoHSse9Libgl2lE1X83zI0uDH4gryNCm6VdYLK2duU3Sxp4iTvGEjfP3ifS6QX5T0glCYwf5TEYyOCi8AvYkkmwKlugmDAnNb3lt14d4CD7G7GGB+SFGajgKabBQVA5m5lGFC4H0hSrAODrIasGK5Ew1lQUslXwbKRVy9zIGrexbgguK15ohXCv0FroiSC7gLXlIXC0Br8os/nDEiYJaz4NcZKJijjYmkJ1qPYvhpyOUT0aIKOFrOupAKDfZfTFYTgQS2CUC5hzv2srds0CrgxMcts5saSOAOMOcCykeFrxaDZaFvQ2RN6wM9ATRJxBtkJfRSJl6PidXS5HujFW7r0Hsv18ySmUfzKCBCy1Vpkda4CpztZ8PBj0295W7ttUL9LtGZoTZImxA7/Mv8RgOS/j22w/tTfl1ydeUvc8JQ2FSLjcZb6mt7IhPuoyne/06qWmDHVV0e+sHB3IsSLmre8zkVJVIJZHbjYx7QUsTAg1gO4yFx+S8fMW76j5m/V6iZDujlFKzW87IjuYL/jrA1NI6I4gWk+mb5xQIcsPPBap1LEQXQi0DgVlbLudTlBbx1xHTU2PfiIo+X5IySzU+gf7JbWo2CSPnPCVt04vUV5ywtQ/6Lgpsf0b1ZR4fk2/bjtzRmKI/KPunckvmQdmMxAJNafb4WxUVMajZBYiC/Z3fjnNGSnCPVnHwAA/vko5zlaOdPaiYDFYbpzi3rND/P58fI4x7sH71E3VOkE1r2ppeGR72njNfhFIvhR8yc56FT8VhBXG22uxUHb7KSkYEPLFGT//qmGgRM4oQXjTmd/zsuH4jiZ//6vHRj/f5E8nkz1i9/4sDuR+Sn0bNLvTpNvainPq27AAM/bmRdcSqsGDTQVuUc2zs/af6KgJBCOrfbeEfg2GFJJzLEur4eUWeUisiR8CWJFTqHVCtTX+C0Vov3qEESYxTN5n0d9dX2cE4fvcRrVSE3S8/ZganlVSwJ57n1HvQklCIWvr1Wy56iVfyxNO1YYzunArOwF5XHCZ1ZhyEnllcgCPkfn/1yEYkx+fr3K7ijC7nHftmJ2QirPjms/TpZorqOnhJ/1umqfj2rlJb9YpIJqpKM3TpNp45rgiNNoSoZ+Pa/zBSnvJRHiHIIuUWN0XNIRIZtnw/99NWz+1jx/q0fLf1/yCY8d36yAH3mYotahPCO6ePZ2Qva6KrlQf682KM2WNDeTMVoYslSdcS+o+P+g/879Sy3W7WagZ0pVz/40wpzNihIgtzRKBpYWTdRS8G+tJLexYGnRaAp2CRBQ9weT98DQmkZlxr0JAHKttBkxkI6yAh7bO3iAdV8Law3s6wvlDtm8F9ZlfsWRWTxurh1kLhvuwDsluNgvAXsMbmXTQI67TSuTov29dYN1FGvVkD428E0gBNh+FcZNrEhojZJv4dN2adw+HnVioDGrJRP0DIIj4IcInkx41Gf3QNrjc2B83QkX3vZQ46BEXruSp8NisWP03u0Xa3ZMGFkB3M9ybec0hSfAAUKB0fwxUnoyKfjdi0VcGLrq8rBO/Y02MTDhy7t7ylTlebPNdAceeMDJ980b78SbLmdme8oQ2/i42FrvJNYhrZ2XDlKIECjW9XBFPOztlmESLJYqJ+Qa6D9765E1yR+6I2AfI74rJpYWQd1HoPE6HHh5Rs+N9kCOX/+TsvXxgyAzVZqe8WxU3CZXKeXwgvxs8pY58SyCWk8HJHGtrlRwamlP/WoAjkiTRgIB5iS05bgOBQWPW/FEF97Qatuj/fR8XQQvQaJy8FK7jF7jrbmG4arrJG4K6EGi6Sys6rzJ72p/tj9dUbkXHjDEw5VB7ErLELxk7oa2+jAYHET61Ty4YeJMp/Yxy7kSzTd3N4YrHmOmmBOt8BORf2bFY/LCsICNvUAZd+S4vujLPPZ5I4Z9126vtedYwPqHPzE3UuZVOLfchLG/1Xar9/mIXyUrfuAIBkr4NNRIcyoGRcvLIG9oZ24kNpHpzSZA6SbUeyMiVKhgt1uQo5WtVnndzuDIsXuqqRlOU+mrR6zxXddFee47DAk52DLUZ5XAgH7KJjTXLxNSNaTAzQxxacYpjklMo8qX6UmXQ/uvniAK0hKxa4q6gGkvfru23fw7tqFRlyENhY3jMT9SbA4Jn9jCxvY/LbfrgIMj66MGQbGyjofipHenW+XbWKSha59dVM03il84UwHAIZGMpSbtSsxq1t3BgWM853p79Gjx+3Um55oaQsrRvZC5P9DRzUGnK6CSnoQTwsDEiDOaddBvqFFZrUsTqKo8qShDPkSqBaAqenRAuAd4foV2SOy5pkPBn3f9MpJVfBmMNeMiezoC19809orFWZi6vn33JWG7ygHvKyckjIthJyHZhYRg6OIlDtFUPMjUZpeOOztQ1lEWIW9QUrY2eeD5UA6w0EQ9SNA4kJEzc/Cg67Pt7EJjbmVBoWTuC4LkCeRCctyWaypvlFhH5rQ50iASnec/hYmJucpRloBXcNPl0GZqbi/fFVsZpDdIgy5VSgt8tyDynMKMTuRJnL3odMZUAO237No0uMfkc81vdCp1w1LNeYnicsfpTwj/Ok5eWX58HaWYPzY9FbeT3tnps8YixYnkdcLZsSeAP67CbeN2t50PxmLQrvMJzclFIr6JE5xfixjOxN+zEOTpM2X2cHgG6Nbs8jG/hnOoU0IGzEm8XFQGvQAdVTyQNQA9rHUBHbISVFe5MCFQvll5fDgMVYoijTvubUJXXv1kmbjWPViPl8nkVAoeALH+KS2De38sRDgqfvLEU6NvuJCecMmOrz3Vb40vrqvqAXL2JzkcAaKvjhMdjnvRSt1sZ+UYjtIpniI/wNuohDnx7eDK31lCj2UZjAWM+04muM4WlW2gFf+Oljlni6Yb6dhzWX3c9GOfJ/tt9+UxJyq/hCLeL6ZmBzE/iq2JHKV7JMKBPlWkiQ5V+M/wn0qD+lBcC6Slw5gkeUgx/xAI5NosPainux0bIqRT5GUmOaB/A2C+KHISC7yo/hB2PsHDAnC/Qzr6GniTGXTkNfFPpq07MgTxCs36OGnSV0Vh5R7KPyPR0juyOpxRF9AZ2neEnPM6/Y52oUVXhCnQWHDn83JMVXU5Hw5dJrw19JsU35zTV6/9+wT8LT/U59ZCe0JyEDg/jtubQzoIcIKNFthhJ7FnTobgIITJwom4q7ptVSZBJrdF+E5BlDqC0FwmkFAtiSDH0VASt7lghBbUqpH1SAStVp2xrxMoQ7/zvRUt610qauHm3Uwyi1SFYWywgz/ykhVb5Pail6MAppoa0QZZ14qpoIdzzpx+oQfXE+WKTZJBCPtpv8WiDP+wSiyubHq7d2ghmZIB41QaYY7B12eIVBGQb9uzg/daPSuqUE7wAinD6OVh6NGUJeKnPA6A4GSZ4Yk42kZX6Ih8jEwbmCnMRz0rsVbdpcuyehrW7BZcdQUMAL4HnarsxrXAkjn8pBajF3bnl/jLfZsbiGM4Ze3txUL6U+j6bqD3p+oHIfYXtpQfNrLKeybGYU99BFJcWlAz9NOc8y+OzuGTl7pQWMFH5e1J0n+fniqHmjufiQKEjWJsbsKkwzzwqlDJ7ksbiE8F65JNpEeI5dBmrmLPmiHw1HYRfAk/lqIHFMcWhlKdZW7XoFJl3kI6z8Tmf58FoUR6fi6uRqW+5/Wd2Jlt5mvotsRH8tRpfH264ABQyAL0XOG3MajkRXJl6Fp26Z8QKyGBB9Jrv6LQLfJSsO6Mx5P5tx1q4dYgbFGz6ktZpjYXr8npm01CGeUcNXddMLN61JXxiE+N3qcAwX59rTAwSZKaWfOYkaaG6QKoUkIQz1uRVsCtuyvOdtdlSlu6PefpsQiOsxCP/G9NaZR5lfghwBUgc9h65ZStqPvdcGuA5otm6ETjm5ajuePaDkTsmfp4zaZzDQTr/HAwkA0kPv5DJqy/eg34zzLYSYydhW2H6jY2ijXLBnM1tPFj52LGuQh1ew8lK55FDNQlsu1rY19RmceMEasGmVDLDu27kmSImfIXcqjT0Wr8j20RK4Arbpt6a4gn1hOnHbE0a4f6CX+Uqr04wqy5lrl7hNSunwVsBgoZW/FyRBpFUriX6lS5wD9ei5CNBCRdViiWp++STyV7earEKC2wXDCAJrBS4zE1JlVAZiygN8TYprG7rbdtCzUalmINxaV1QzfXxdVYxA7fsf42usmWGGtniBXWAyK7MPODh76Yy0U0DREfPJZZ1gokEFhAzxCxoqJJw5Mu2q9WLLawAXfVIqvThC4DQe9VlAYdxS9EqklU0XIFCpU8qwjbI8Nl6dW1Nw0pH0dni+0r9orNenQ8KkyX+7VDLSKY3Y51oZC1TNI4t5N5VUH+Zj9LH/4MlhJ9Wbz6355o3RWvoqxj85pVST3MYS9TV+3s8q3v/Ty5uOf96cCH9D6aPyfIDxxAd/w+8kjAheotQbzJ6CnfEF67aNmBKYf0l0us4EDIrX37ctRb1GknT/EEfAdODM4UL3VgtuEQB1JGR91E9f/w0PQEcVSrM0YzrEo+e4iwWt9kk6lzkm4ShjEKZI4aj3rhNoatozQ4A+I2SOLX1oIG8qkww3mWCr4a5+t1kH308vax4SSQLlwZ52wWZu6EiKaiEpn3247zSuuKvV8ye4Ym52Ds6+YY3zILcvDSzpSHihK8XXf7g68gqZ3Ym9VuziDEpNaUejgVkgjRC1UERJji5BsUUutqmNQTAcmp449aUTvvGNmtdTn+yBPKv9YMkby/dOuUOBa8zsVC2r2rK58BrsQP4XQgP+arOHbDZh8KT6/ZZvzRamxomDCPd+zetaDMGEC8+o/zLDG/qNbfxbVEkzRGx27whEO14RVgKFhkvGPf6e9M88LCpfWKgjbmGL57UPcgXHay+UlGNGA/BkkYKoaZZER3kJji/HE2i8R5QPSkGmKN+0pDWt3x752V5v1Cyey0FV+ql0q9row5pBHTQKu3GR/MFJz8AqkxCLgOPRdyHIljMTvn482wgiRZPFxNAzKBt8css17G/7jPGtsVv1x+eRn0RI0az9ZroxhKgAt1RmAjM+LL+fkDJsOahDtLA8maIrsou8ofJybI6wgQ3xvAIhB552n1eHyEebs5k+ZIQduaZlta+9K5XesHEqDn+BbzR4ImV6HHDqS1yXAv0xgdcz8lKqSwRzd2KjLoLTkv6nCZv5v2K+r4FwJYncOYZNgDHm/RUrj1t9rZopJGZCqWdx2ECSvEkmiyD13tU8GFg3Yr39+ZYCBiVi7UZsAAjEelS1Vp9nfpwQG1OsMavqlx2CAobkt5AWgond/DbraHSETb2y3/a9FGCFCGpUb52UrH2aEt914MNk305HX9cSWhVE0RNoR9vu2Ss0pu/BWT2YWfYVYzaBwg+IPuiZvqgoORoTVpq80OkpkW+OD80GuHCCF3FO9gochNV+x4kQ8OYfnlEYJjDijC1iWsKOwqaEfgNrHjM2gk4Ab7XMxVX9Q/OVRWR7rsm9z+YUAqkf97CTqUeTPwidH6hpwZsTqM/jDAJHPIpGj578V6hvjUS62VuPHM3fEek1RPp8tX3tslAbbd6ukhF64VP6iO9I7sBnAfsprh/pt0ja0txUjfX/6C9R+8B00IE1zVb9t/XEFoUaIIdar/T9IMv/j/mKLmkJVvWfkDMVv8EWc7oiamLbONU5+1OVCvuPWuiiBlsqJrNrc0nu1C7E/rHcZK3i1i/8slHKfEQ/NPRxm0IZpmWW/Xpmk/N0pNWWuTs+X1TtpJrvxKOj7YEKoOZepF2CYQloXzX/jHnZ2jk1gFASw+qiL7lg85Db0XrSe4xVILzmDNfgB1soAjjnP4Irg076Zm2RTFrrjJctyezItw9iSp2E1uKyO2lRwo2lLv+MP15aCzkVN+RfsTlS6Fjdro6cfl+f2NfmdQnOQapXZ5ET1UMdkBKFUAZV0Mr/9E6PksQXdnYUZ6X7okVNexuo4j32k6HSguMBxohqjzhh3yqQuBuCmgCx2XmJ3OYKKhJwTTCo2LIJtvSxMm5RgqnXcs6yO1I8x9BIFwCG6PtgrWnkEJlKGp/oTdQn/PdLYA98N8Y0snIF5zB5Tx72NvIg3QQ5d+x+HB5IMQa2y0fUzbTjRUtNwauKX+9iQsZbcMiqHtWvww+uh1HbEXXm68yGhmocbS+zCrZcjn05tg/Xk/R4bWfFU8EC2IsL0wB6j9uJW5Tb1xDJjzfUdP69XpHJd7yM7k7T3DftAbpkk0wsuPM1cKXcSxwtMxql0XlGSl9p0hiU9sIlf6Tgqy6WFLyX3IaT/8ROzPjrNesxtBYSizWa54Vh0JIQbJH6JwxxQriXgphiv/AHJWGCdd/Jw9XmF1FqBjNfYM0OqhuLZuuMhZoJr0GvyISdxAyBuYgIVGKjsSC/E3k8bK9xUzKzW9N7bXUd8k/OJ5PZIi2tckqoJYMc9oYC9gVP0z2NlqwHV9zUGH7Sj/zWUUhJN9NPh3Zq+Y0nD1o3lmiAjrQxFNgOaMViKB+vep4If9ohzHBfEq8yj8J3q1M1ndjvkSNp1ERP6XaToreS4CmQr8mObCuh/FGffrMxpgpjl7QTluNDPnVc+DGf9ISnrjOYLDyPQxkNeASuN5Y/9+ANC5+Vv07NOYKIX7Pco9qnrDor77O5nvEgszfwhMGp3sTVMq/kK1WChJ7FxvvCAxH61BoaOOdWOdF9A2qTOuCfp1XT4h6p5RQoD4hhwZM4peGI5tMkCaKLQiyDnc972Ofj0nIHg7STbgN5v6HaXGdWGJV6SZaGeMser/GWfM5sXXvSJ/gyI9gfLuoR+baEYXXHIpU+BPfsFCtiip2dbo3QPavmfLR2+dnmabTa98SrSMW+GmFfTwlj6TkwYDTTT7LsWOxbnHIoMguG4lcWDXCNgDx4xRWbThj4EiEi++T84e+n0NC4hiKs9CdGiGz/RChRwBEKFkbOKnByVcu3uN7aF0556uZU8ysD9k2ik9R/WReOkl/qaz9X1fvZaPDefCLLiVvXiueTiRQyWuaC+/M6Fh8y00DOgc/0/WX+dqvmxZ0nih1niOpLm1OTLgP7WCSjHnqJR7QpdB63OtgJK6mIn3TLOw+ImXWPRkJeMWvp04puPB3VU7ZHLHmBtGroe5Ilks4GLeVnpSCh+ITpQU7zbaJ7YiVRBvHHPBxO2rixm90ljpQZ/H2OoOh6JqzSiYx1mfGNu2FS/Pv7nwKUIQ4mIpoIpdSdj6QmGjcNR4fnVx5+ztbGX2dcgbn67FNuG4KZUsg5zwYXI5/skEADi2qWA+HgX5qcNx87Wqb24bNO1wvWb5memAyc+BG5OXAS9N/IPSDI4AHEYb9l9mMMSwMhBfz5pERUcGLxqoZGz0iW5kgmEkHpe5Tw5Zy+ZMljcbv3jEVAB47ZXbbDvgfOSQuY6NDqva5JT2PCqgmLupggzjHxwpMuGnVR2IZYoxya1GRCNEibzKOtVj2Lq1Ec3HRCSna2e876Ki3HLjWkGYPKh49Sdixk4Btk0v3kfECPBKTWkkf4aUem5nkeW2bUzFiLC0oRKIsAK0wQfx2DkH1glE+jM+g+BZ3IPZRifq8GPS7N2v/gLNU24BOxQcxeMDj5i55N0sCMd76VrmqHCl5Ii1W9KreSQqXrefAG8kg654TFxwCkU2/TdLoN7P62GbtZd5iYGjFL3ENo9X4NWTmjdNA/kCmz1t9g7pKGwE/3RMQmMmCee+CUZOVpwevoC5soJbmnuyU0GkeAAWzq0XEGjAy17rrD2EnwtOeFujgWo57WSHvE3CIAFq3LvzDfn45k53xj0QzcGchBrRtczmFheawp9agMnnHK0W0vdQGcsAft4ZxqWDdfLhOmP0vHjM6U/uGUNBi3yQ7tftGRQJeWUzI8/FTwsNMEepMneoX+fcG8BaEWaCAdCez4eJEKtNE/Aaf4xTW9hBUmsygPQxz35plMsl5fNrzNyu9QIdkp1qe69V8vSqU9C0/AwjsNFThOgCSmTzaIbCQz4INkZ+qphLeGFXzdTQOxs4eCrb+Hl7ANrBBNUCF69cAu9D1IWNlzGQCkVpFAOFJP6BnHi9XJXVSPhyyZalhj9OxYU6HtZWxK/dY9ymfdbZxX9Gq1GMbutQhZDyqaWqu5pn9ywC4mIrPYl+iu9kRJMrPTFA3b3juEbNyuZ4WW+qpEFSO0DMd7P4422HTCcuyesvcL/v6Dwv0lbtFweKWUNfUfe1MxLKdP9Vp6SMfmFFwthIyvHGa4bsp4NioL7IE0LRQUfAemr9mO1BkCTgznU9IACEu/yFZ7T5fu/jp8fKizGBiaBkPeDJ0uZzuZWG8Oe0g3VYqUiCSMvv2shlGevmo02pFxS406L+4xW0AIFYtUqrtTC+yCAsStaI6BHpni2el72LxjaVovTaqSBMD/kNccBHJQwtvOs3KCUzFelGwmr4GZkA1K5sEAoDJW2Z4+5UfnJMX8j4DNzFwPYEy2ZgYr5uKlIxcONCsZ+1AWZMhhFCxtPGD0lxtTY4thDt7YOE4jNdkcTJcElmXpBpRNml+Tpf/N5tXb0yfWXwVKuxBbAYeSdRHpsAUW0T1me1CUar19vUkR+lATx1r3SNOKhDAQEKJlh+a4+Mt4P2/1R/UvSYujoKeW8l8DRIOMh7Wgb5gbyoMONA7Zl+JPWx7Kn8jTAl08SyfevkxbYVozS8D6pyE+3SlsI6Wo7LdzE4dFycdXA32ePlrzcoWkpiVvrPGHhO9Cylaj+LC0jyKMS9LpdX82zxK44/ccv5s2Dutv2ulQ66eDnKs24x5ZtuSRkfb4IcgM/LZ+3iq2LiOBw82FQyYu2jPkP8QVajFMcW6D7LhyQznKAhC8CwoH9Key1+OLiV48/a2zvwnftvWfbf+gcml0sovrnEEs5wafF7/M01BdpD0albChP/N8b8NbC8VW0ctkTqwCSyGklETMKEcpTi6HgeiIEwjfvC40fKwnmxFkO9hNhc+9vSNpLtdY86dt0PBUbXPrRIeyA70Y0Dx2/JTK12BCKOfXzW9q/iQGG5dWpAV5vakHUQlk0f2l6T3J+PyxuIO7T1uXdCVEl/5+5XMmmQHB36JH0oO2+zhgVrcsr8g+5pGDEaCyHdtC1vE+hR/wg0/d+1DRUHHxkNrZRWqBgUdQMkC+Y9PIm83mUdNPTglqc2JFLeDBwElC/9Z1mNHbirkeR6HmhPc7hezkNRQust+nbSXrIgM9qoJpe17MT4GdSggvqsQbUZKgfE3Bd7vCZSPi4r9gKwoWfQzlIw0tQ1+0MFPpvMCr8vFOoDeagWQRkIQv7Po6OYGDCF0Ona+Pbk7Uk8XUXRCgMCD88q8X0pBm6HIBl5etJkJeqotayD0l45lEtx7jOQsnGzn75lULfPI7XzRTUKG/v34akJzs0G6b3stKcsPYvbCt49RfpE1T8FvTNHDBSKAVFsrdumhSWncAfoL1/PBYt9n0AY/gM5LRNQzAZ5aA+9zIDTJ3el3xzN6AGycvDs64EjjuIiKW1tlQeTmgB+GhGMDD/cPLVtFQP04lS5bQ+2ux8HgH7Az9us16KAXLMsQyYOgkDYMD4fzSzFKe68o+DNHSM8nK3oIgoVzSOAF8RmDAiLTBJtqkIai4tWm1+FdTGpcbKFUptkeav/TYNOmfNhvPjP2HLcI4TkiSznUTTN37+W6v7Xc0WKIPl6skOXGcQA4nCPNCq/Ox1YrYoz2D2wkhS6K4+9j+Gm7jPsncz/ig9dU+6nXnUhLAi5mfIDwOIw1mCMMHreqBMqW8BNIB2E2bW6BoyQXfMf3U7c/WpSO6rjeoUlAkILFW91k6kQlahKnRTQtrBsMxEIxGrf/Yvod8r/HVhPNVQSS0Am3rIWHFZRGsFlMWPG4MK81+tNf19SMQGfBMiczi6T2FBDLCx/ytDjohheW+xYVRDqM84suaNU0TBVxbBV6QOe2whqxXVvqgzJx30bZxhS+KNprgDxg6ryXumE2Je+q0xnXi8phcxA8gRX4vha0M3YdEm+U2Nk75mJiedjdRzOM/8+TyBdyEnqIlyj1cmOKzcuUeRKzls2jV1S7lth9WFCoogtv2xOUO1w0c4gf9+H39VMfuryyGaI1RwjmAkW98yTB7eCerI4fv4QbBVftoGbvmaA+tOSlW2sMSxH/C333+mmMbnGL6WOtsC4nIeLo7gM2im5X9MyU2IH9Y+6xPohFty1uwu2mb4T8+YODcsJRZW+WKU2z5PVIJTA9LAvvtzskNUSZoFy6iaTabo+viQhxcGfbPCK6c80RZbRVABg2UFDmrAwkoU/lEYGsvmOBAprgrMGlXiJoaYkuXCyP9P4o4aPlz0e372LxsOsC5sREqkiYijKGAf4WxwgUQoustCWuJMCwbGR8b/K6R0VUEXbCZmV9jPyR8/m/AbRjgcCqKFLzlOePK3Q3a4nAQ8aKYVR3w0Of0S/4+ZxJcmAWIxko0vpE/PCgdeWo+6vhg647svBzwCAQ63jtsgHzw4TdXAaSasKkT4KcUnIbu5KgBEggGcG9lLx6NrNT4lc/UHnZr8KWH1DbHbwWzM129hcDCL0DTj/tu+AA6z+wz0SJeNLrfZ3slfTDrBcXUe6OJxetcVKTAjztAaSZohO3bUpyWGrrVdL9Clct7dTZj6FbSaxx2Z/MOefXNe2pY7lhLqeI4yNwYjmGTeXummxshcLOD8z+dk1Q9e5JsmcSjXUGgcBuNn3QfILRFcExi4mDHD7PZ+7FnQcNpQOrzOy+6g1sENe8/04Ne/3vobK6hEX57jctDQVfOzbPqoVk4k2PYcTjOWacfB8vg9ezaUib4fhnW6SdtJdwpaEoycjC/H5/+dzRB51lwAaHQbLKfIKlnHUk85ox9QGCYL9JVJWuqlCr7gZF4Nbpfgelu/i2X4/wsmpA8cLSCuZiFWuTqKe9/Dz7gOlQRxPv7gAead8Nd8z4GF5Pagm3XZMK8+gVbF+Ps9/SyHbj4K/myjNc6QQVD17cidTd+uBsYB3zqvQrqDE/o1qrzBcLCozRvfUV/5qPdDynz//yGP/EhoH+vvWrJpa2ZoEERn15vAbX4Hn+p2rb7FK/PtcaEFd5SwPmvkpNZ1gOBsRRhu5pPY/RWNwol0W2yO9t8gyQNRV8EhGzsR13s85SxvZIyzZH8yY8LLNAgr08To3esHvNN/txKH3/+rntJQp26p8n/IJnG+rJmxOZSl3JvaawtgtVoEebHzQH7unGOcKgYSkwstwlcS2v3ESFTGH5NOW4CI3BjL1ouY25849DKZscTEAFW7LqHVfug+AF/nmBYGR/MPB5fGClvx/nnWERaUudfTNJ6cwAHugj92yl5icMoGPrfFHRA+sLdY3AvcQHBlc5ulzTXcp71SQfzxoJn97hGhhgcgVXwFFiWv8Rxs77RCl0vUMCD3Wvp8DQLvuLGMmc68rVFpCH298CWur7LyQ4gq7kaqqWOXN+ucTUQBOoLwfkVsr1tfgxoMEQtVAiZjTBHJR/tLWDrfowDR/zkgyrg4YD1B5tWF1Abo7Fid2OAFIf4d7j2kotvGuCxx98lvRe92YPOxM0bG8nrWwbP9xo0TaY1dbXdUk32yX8wyn0tjpSMZj1pNybAhnOAQDQnLE5tmNVb2NKf7JLa3Oe7rpuKfHx7nQWAUUwq2A5JgSbHerYPp9DziPorCIy/h+zGf5eeyLO39wKG5nfBv/HFbLozWC62+GAKoH8YF9bcJLh2pG73qz8az4C4GDEY8MZj8SengR8sorHHzpNR8rLPmLoIxD6Zz4JEFKLhAY3hgZhaVOmCETp0JCkv09bXRZD/SHBfWbPiGaub2k2vyUro/lurGD2POsd98vfFXv/8p8t1e8UPbquzQ5/YsNubHjOdo8lmgBoT/9lTUyPA9JWSvSYQk3P4/iz09uFxgVWaMussCdywL7ycqz1J2GBcvQcYdOmJWcu9wZ78Czhzmm1UPkJLzox4lxUmywh6piKF1bzhgh4H3h/Vf3mgCzPafZqw98doDdKD5/EZz/9CiFZx/U7JYwm1QTgoWer8kBF8RqJbAKD49KSwlCNCFkUwAOrr6MN8dmggm6QI/X4gAbt0FSjqPy7TtKp00wQcofTTwgN7w8E0X6vZbrY/MOxyKTWFrDwkWsnX/v2FlqbEYadqBY9W5trrPM3RSKTRS8VUK/0zDzCi1l3Mb3ED1LWG/DlxnibqaIuM14hev2KnQ7iuHyN0TUabfY7SRlO9Wy8D1LYl/LReWQG87dKDRFTPrbxYAhk0/nYjJPipzYfU056oW7eLGY8/aWRzFlyvzi4R5/kfnj+aILcnhymY/ovfM4a6ZVsO+/yyS3nKcEW1QDYkyWFoZBCdhflViMTujcLu+BPoT4IQ1HbGrofTb7XD1gcWCxT2/rxYqF+SoblxI9fExr88A9abJXCpztK8U/EGsFNm4lJQumhMNovLgKZsVonbPaGMpNS0CwGU2c6AjcBBGnuCmWDug1b+HanHVE1VLVLA/lIPAd1mjbeC3tTEkXGq+2XOZOy1Ap9zDxwdLmvDycDAbpSV19e0gpFZvi3z1s1nm5qErOASA7/RjG3MgzPKZLsGCZeMOh6Lt3RraXz0BZoRUqhfh3qfViA88rw2o+a4NZhijbHDjaNfZ/8F3mtVIwUToz9CkyICBb+LPW2eS7+N8SyED94nbg6MkT6NHcosQlSdwIKDwQ9zJ+JqWTOLP2heO/L9nfL0LL65E1Bz9WYblwyFmUOgle99dMAb9TYgKJTpqlrWzmYsZT6pJP1V/ZXto9wBihnqZxXJnQlZSCg3fP9xBuubiiwnaHZqfVpvwKSPmLFaPgeBPKsThNGDzShbdC9RJeOR0jbp/githd437i3xHU21xGMhfKKmR8FraMwJbSV8e5fKlyh6N4Gd9LQFxoMIjeKdCHBCQgr95FEAmHWdTo2Inc2V9denruoJYNp4dCtiow4zhvQ72Xq8fCteozwoQcql4Aw4dYo+hTrGzL/7ma5qmsACRzup4+zBzIEZsEou9z0hRu1P/td36O53Xovs66Z4numVCMs1JwiC+rk6/yytnN7aSpVU57USykfEphimJ1/8GCGXeUhzXBVJRoNIcPUJhYu/Pa8g4uQh7DUBmqjInAk0wNs0UFCoRvMsi3gMAMTGNMuSQnjNeIOCSMLSs6B6YNstUu0K7BUWutPuN3noMQkvMYUIjiY+U+ichsrnH3eYh80sSh6HHkKRng9MN2XxAPWPhq9VVD+BNsp3zjgnrNmAv/dpiprtRlkldkSy5UlJzUcaCLlhbg9pTLZ3JC1Z9iK2JpGdf9g6jvqUYUyrBBzpPKYGOuos97KG8KGw2ErPV+bEWCPAfMgSqM6fMzKHIuAETDhyEPyGLaFCgQTjQ30DxMuwMEEmRlZiDszDI383HtXCa0mrmwG1F1xwYzo+Zto0zLBhwfjzeS5lqhgdZVmNu4zCiePHXAKRlWBclWifR9Eq2+0tBB2zMcBATPjSa9P+uOCdEfImYmcvcDph5XzHhC1/hisGaHqia8f8nvZUuKwXCP1aOO2K3b8bmAOXv0Ldtf5C1eJDSqhi5XK6dkkg9HTjWJV1iUVOlxE7fE3VLO0hSu/hdQUS8Hyx0HoUNX5X7ZrKNIqhwpJsR4nujKK+GiusPIybxX6GBbhaNx+lliJwDt0I0sixOOmCVNQE6ttcolrEPOSQwx1SVdiqgfEEso1/kshS/g+s/r8cy2r37hxVMJB09BmZvwJ/ThGlZl+c68PmZeYw7J46963gikEM9Fv8AmspUHucK5cRjN/x1kkIZpfXEg7PC6SyavD5wpQcDkdocZEhgA5YKwfdrK2bw9uuFgrhtiW4meZzbKRvEbSFPoGdtJAGdJvZof7ZjTmPlh8u+UeMxAD4+TkNpkT2nOI1AyyJLYvdBPqe/S3XVkPCzQK1ocgzfirc7mlDwpEO/oKyb1NVkGSg3oBTtINjaurTuTN+j84wMTdZ1ojLLkirup+rEKYh43yr3B/5zto4ZWOTqUz1HhJ0lV9ci3Zt9TYdBEX+45i45B56JCagr/2IqzPLmTXWg+Dz+Eo6WPav/qYim6puVr9ME9KwbNDhw6bhDBM9fJ2bMXk9YOjgyxDmBENPoWLLfMex9W+hRd7/TR2E1Beg5/KDLfKRsXpIeESCJ7HrToH/I4CIcXZSS+PzUOEhMgWS7wizH6oveawV+qNdSHBrUmXClNDo7vx4ZAgqffnEb7G3Myhxk2x7hg2TES33O/1y4TnbGbdQZGJ1jW/2gwmlc5SI6dE/8pCTDgrFRs0wXZAb3gcdjPtbb+5KAsVKEs200BgF0XWixlmnYidco6fRNznKses9aPnDjd1gxOhysY125en6aSIUrG3BcNsh3xJLRzVEJdX/iFe9bHLi0N0H91d3RtqpXREXyVxJqY8gUIcED++STxFhOvIf0u187R1iCuA7LW4nlmd15KpxewZ1+APjqza8JTRQYvZTL/Ow/BTXK6gQMpk6fl5602bs/NcPnWahEJN14iYVL+HgxjN0JLb6AHWuveyW3XOevldBvP54YJ4RrckFEzrWew071CrSecZQ4syWynpFVKBRMNL9gSVMQTSu01R11KrmQ8y9CE0AqcE1l1Kj/445hIa60ydvc+/RPw1cEr+oAUYd/i1eLXzGyZgVmqnPcdwQQxzPQuHiwn9XxZNM9F8+2eb/1raBwFwQvj3zBSvHrp1VwBHVFe82lIpNpcaTMQa4iRNHxN+Kl5Rz6Z6lUD+NUZBw+MwGijDK9PS4vMKaVuZB/kHb2sA9lK/2uwv5DvOCOLgDl3O5HpcjnW3kBmIzwnzsJY3HFlZWYwnxgjki/5MvGh+ouSqRWX13SEeDyoqg8XFjiTwhcrvZj/4HG+YLQO1vlFPWK1Dk+PLi+eChSnwc7NtI4Zn8Vv5JAc69W8htWNGWdxdVCZaANkqcLeCoVr+j2+neLINhHzddw2V04CnN/cDjycheMckHkzoVpD8ZbsaYVKtfpRq85AkTmGE57n+wo4wK63jnA5Ookg0bZ1N3V6PLdiRdSl4eHmt7yI+KlSNo+TNMbEhR8kBCqWug/5XduvcVL014MArVbMD0wHOT4T122h7VRKF7Z6F95QF2KcZkC3w6LPBSUYJ1Ks1tlCb7H6OcljmT6sa80/zKwCm3s7e/7eNCuFOlNmw7sdXDUN4tEQ3UHtahIwhgm9czv8a5xE/l4L4xqr9tie8Wxg85M/mHkyCjsOf2N64MAOkJ+FFvpl8lHfi063IQW+zEaZM02yp0aEn1Vfw7pxJgrzJa0lM0P+4N504zCvzjrza9Ip5FMXs5zscbRQIIkw4MSr7SGAFvw+gnSsOVvpUfToGDRKzGsX04Btw/CP+M5ebtMxtqvSC4kZCicPHHG6Pgwow4gsk8+nA865sbiOMU+H8HWPD5SGxLffl8jCeR5s5iaYrYMxn4sECK5thg99TOFEmb8sRL37ycnQIMahPcxOedefVi6mbjJeRqA/oNG2n5tZSnw8A6COM7AIXnXmPzr8uYiPTkR8zAYkGE5k5kT01SdCLM+O4TsE3OcHKseEJ7ItedmbsTmOxya12oegpcwXG9O8sNpQDx/eOHpVKA7w0bMXNpBMZeSJcBFzBgdAQ7XcN8SlevCNGuJ2I6TkagfJwSktymsNZxAXJoDtdawY5bqJQQQOWogyT3S/cxEnHXI2qElr5oOVAlJQBwO8FkIgLJGBfhlVYzhgqUS2R9lKYQvAbrwIz6NhPiKA+aiy0uhdLlo6e7xKRHtXz6TVO6J/onJq8V88xOI0GrSqq+n7Qgp07lHHJsgn3P9ciAIlXvx+KSMCz1h0dZVkp4wnknalVa+WCVPcGcr7kSLqN46NX+t5XsxqmfWSF/26HTwgUfeJRDrToHIjKLxdfbk3qbX3pN9cVIHu0FIT+jCUmByg+UocbxUdT5QrDd6lIPJ2twOpcEty/n7yvxUBGqJwJVLYCpdlfvGlSyhPnxrzIpMFA/Tpge8oFXKKtELac9JxQZXZobPXoAxH7Xk3X7CaPb0T3iWKjvCDA4cdf+fc1gCItYni95w997Etcj2n9BL6NQ1cTJdYgXq9KeTWcMVbZgRfR77k870wxSTg0zjBHB4etRc0AJSRYYpsM7tVv4fkdn4/OX38yTI1UyRuYHQnvk1/fbeWZVtSklkS9dSle+ebRCZd0qorut1vc4lo5ngOKVL2vPUmur3SLsNjPLZ2+LbB/aNGrAEDfZR+BqQ5Ngp5mKYeZC3efOcW3m+eHW0dkACIS5vzCBXXQYPhS/2HXHP6jGB2dvRSNYHKruftpeMIEXlhyVz+N5zQa8xc3rB7yeFHu1klEOx24IGfRfVBvERl/epheiDLsCiLVqyxgQiBeFctvypSKpQYK+/oJqkqxHw9IGKXlnrsa5RI21/wkhlq2+4SSsY5KtGOi1QQCT4Ez0zj6U7fH59on1OmdFbpuK/pOXkQ4oAuTSicjp8Es1o0VjMSMcy/rkC4rFJ1sr1pprW0wIUchaWOiVFQmsd+r2bp02ahW5jc4R2oVzSx5+aF8EIYj1JX+d5WxsGHNBbGBrgJeIcoVIwO/gtraoT9GW3skEBcivh7stNqkJACIjlTXcvfT8jmHn2uOviAxB0fcFHOroIU0fN71tk8JxJK6H9uTj5+4SZm1OUEIJZzHqIdIPZD8IR8H63bvtilk1dBNruS+WfiHCZkN1IN0MtxeYi+BsGvJVJs1NjkmOoZdvw7Tj57G61XKTHQr4arN7ECZIFZ1YCNoZbDCdSnaCRyZGQq4LPm7KtEsInrCUVqDHfwlmnKH5zEgup2xq8udVCMA7L6ntBYwpTxIBcRlRlBPnjuHZcrS+4p7SLsGcmAFQMFCaXCOWDkpvZg8XI6C3GEFOy+W9r417YGKUZ/JpMJ5aP85ZRIZ7h6WC28Kxp21EnlPS+fSOWYPFh2NDOuCmxPLChNHS1ZP/Vundf8JHxAiZtx6iANKQG1bWlmmwsz+p/YWzvNPTQUDHX3Wrx8up63ssXpT9T9qEFe9nEa3vhw83R7i7tx6ifVG/A3g9iDO/+Ju70Joeabws8SWg+x4714xedWuU5I9bZgbLyESv9PjrDgAl0miSi9FX1B9alt8zjKDj3M8+q/fOaByAWOZ0Lj8G70jMeRR3cOKsgjTjqVMLpoZX+/xVVJ0zkVLa+F6pXvH9bKUcVFhZxhwdu4pG+/hQjtuwMDZuK5BBFoq+AJEpaHJZo3U1h/heHJOWC7uFeh/UPrRm0j716bJUUaJALoCFg/1cKX6dItFahNPeKgCykKAd8cu76VLA81xIlkmqPeF/6ZcYd0ls5HDOpj7KP03HdCydqPrYR4pG+ybMK0D87cmPCRU9Hmk5dvis5Ne6vPtHhodrEipxHIjdLoFG2ta6PBO/9A6uPYK2BFDIv9Uldyioy0GOHED5PV9RDI1WOLh6F75YkIphpne9f1Sx6L1bjdV2uSz2B789Qt3Bu2IVabtcBR/Tqbsr3K5aaG7YD07dwynSe6x2lHtPhtZZ2/l43p6Od7UJUWC5N8MQqHyvjJnewUNrBdWWaEHy9bjc1kte46Y9pNyWbZboKaoyZOqHYlnAWu/o5ACrKp/v/zqMvxSyRWQbGi7dsMqmoT/wL5nwdoLTMtJ9LeOn2GyYs/jIe+lvqB+JDIbxOepFKjdvrXouegDDp7lTzt/XQFEdfprB6MEn/SgNUkjSi3x9btvbR/lD7iF4Sdrz/icsfZa1Pmm2T5H/Ul8D3f66nlRfDYbu33KlAZxgBBEVDggoCAlfuE2QucOL1wyhRyUqyDsKg+3W/NDkabWz3gzAfGiHEYQ4xbxyINEu56S7nWE7vY6FMPGM9VtyQSSDqFG7I1EItD8HaPn/BLFRiHK4b/lZ3QT8ZH5Sz4e/G8vDlp71Yv3gdxE82eHbV+htVXze1TQMJIT0ZHRSeULqmv+/49k+gk20d00OolpqtQ48FUFxH7KWfzfRV7mUJ6CHmfpPicQy7gF0RHbJ0AQ1INEUiBSne3jAtYvW3gZPFYkpBRXSYgkW1cQYtUJeH0kugrWbfOSkEMLrzHtNr5/2nv4eI4T7qbTPPbvWMflusDX5YRDjrzO6brGrChC5VPAZWJZBL76ymGY5bg5q7D16ms94ojxqG/v2nP4X7ax/RFzhc+nVWJ73tVutnn2/AEQ3W8yC07vwWZjmNxsy7gq7rxVg9YnVbhI6DdoptzGa9ZjM2IxpJ+DEwXIwD1QPcLvTkYlotqY8Tjq3rTK8pw5vMseekztnGiDSSkNQyCrLUsTUqvsCFGwORvaPt2ZhiZ7v7g3P0YbdNZFjFsA+7d2MUCVfFaskz5Cd5nhUpVLlWN6CyBGT41Ama6cdPW+Djl+nB/8avymWKKkoG2tbUHS/WMOB34EcTiTAnlsZvTV0qvnFXhWC4rq3YaogHEf/AXQrETS2WS0UfRdLaPD7vWhz81wKhAlVU+GTVjeoakZarMkOPnhVuX17r73uPnjKsYXZN9dA47tYofsn5u8XkwH9rz29gt6aTPjqOGuAcpSs9UIbe8mmvKeL+GPgB3/Cea6cwDxlHCnM3PW1v0jl37qHbJ4nAaix9oz8hRf9F8dmn3ZZihVLwhrHknKKfL5aeXrtcQ4QwSPvP0CTUPYPUMC55KOpcWvwsnZP5dGC+Q/MmuhCmdIqdqFdCbowp5mutlOQsGt9UBKIirRzNDApaHkzvvlQwTo3LONMgBdAUqnRZbscUujQgBfraTvZF/7gEa0q9RgnJkGcfx8ZiW3TCy4G4hVhmp5BLGQ5puFbcF1XiJl0tDZToWsdrkJzdfumxHY4MYHduJzar/5ZtZleAbhmcqQ7WIObHjhYstfFj8uU31BcvP0UgtDpkrWH8IvGQTefyOtdXml0LiGIJC6427eDXFv7AcbS0l9gTn0NA/kESAH/v5NOZm0WJ8yltxTHbyTH8xUEPL0rFB5qktcJJQRwDkLrFKBMyj3JXjEYqbYbQSU8vodsgZlWDdJ8p2O6htf3Tlb8v7g0ROmTwBervpp/rbvfdJqgHqgBai7Q30Ak6lZYkcYiXHVab3EdQU0Yl+j++4ac4sO33X/jt2y1vvRJOzFpI/WvBn+ErLdsKtvAVplfOclwa5BqE50BU6dxTmDrLdYrZO4QTOuFkwcP8T5bTOKHe477Fh1R3n4MEckMFf+wlsawFeBByHPrBw9FsljlRqPPk2EjRdd25n+yDtciJuZ48IV4D7NqQxQolTGH5mQSaIwvdVhlbMWNZ7xaCp74qfB9uvN2baz1zKycn5H+EzK0oIF+7L/IrUdImVD9taSgNK2g1nhuxkuuhCyoHQfb/F7BpgS31QCaX2a5b45q0434Om3d8lAabUXGDM9d296VtylCFcWVF6XB6qUtabjzt8Cw7qFoxL/tygb7HH0IRG36XY9VNcxQS8gq/fnZXdHK4iPupm2YAaErDNt606NoDC89oIGz7UMYl7+KJbf5eKHHhSRlwRYqfX0xyqa6CaWCR5hGygKr6jF0VeNuyLK5NZZ/JCt9JWreWcHSfy/b40pl5LSSKmQIh5982X/K0oDN97v3P2HVykMqf5tKBN1z6lx3kN3bLdixUX9KFL6wrZ60e3N1n34QN9PHv8Jc+CVIfhvokD4yBYt3S/02ARDOnS+j56zICf2FtMGizgL3FHc/8a5mq7xQRa+niFbwFjPkmSduJDhtJfo7rJgcJGSSbCNj3iToOjxqKGMYM5LsAvJhsdz0doM/T1iimjICt7y2IMRXKfA1khwNx/T313AaB1B6SfahnGBPEbOQt3FwvEWrxi5ohyxSkB/ieHyE7EgTgtAygUB4cfvmH5M9hrInDVChhpWxm/Jd+T8N3di3QEdKBNu3jx2Z4RXqYspCJBcC9U7GQ90L0wtWok9g0LSmuC4UYZZ7sxGKgp3vpk8ISQzRCmi4opvRC65Qat7EYKRff2ETK3t7XsZsFoPsOxX136JaDp+bXblV+UhOcqyFZlmRr0Xaz8riMlpy9TGWyiSzPiGk3zi85itCF0dSmFDvxzyg3WecRzP12sQaONvcPF6Ghx9oQjWhuMFR8LmcQMeqiq3PtawUrHXmVhJW8GVTT5AGgz4Ena8VcbFj/QGdT69C3A+Eu9c0ZX/oWfIA/WlFABIVlfTW0MCiRA45xrz8rFCPCL5AwfwlK42akdyKiYoBCsmEDD5LD+P3+O3xjiPfR/Hb4xkpAlKimfdavnJt32q4EKWXJ2kKZAS0uGhIA0EZiWEybbOIeEb+Mgpn2n8AvqBmvlZRTNLrFHe78NuBOnwTxwqsICcqR0ZqODSqRhhf5wiuPP3nPcARfLT4T/Ia3lP11+Q5GcOrNheYMgC+hJSMyzpGNOj/BEJmoAThlsF/5qU/qOMWUQ0wCsc2QR9TnGUCfxCWd/neQ1/nlRjRnMUVqTCESh+nU1LjwYAecCUPZIHyf2zk+yR7N5RjhPf8v2Krba9tXCmQxPOD26YUTALu2oZWoWtwJO7TaDCV3DEb7RAm7UR6tAF2cA8AOJVgkpoBY+Ji0xtArm5/2OyOGxfJWibpFNmbCQwX1d+O2deDNrbmZRyUc6FUApjexo+KnpmcaAzdEO8/pcpQt3PUt9yrWRgJFxVb3/kktkdX1xXj8zL21PBv9VJ630qc3F/x4qgG8ZwN6KAu5pR2WBhg52Mn2FB63xGQEJP6pTKy0l+jHs7960HFl+iYmK84RRF7yc7ykF/aXtVToNm81dRdE3m6vahA5nMtwmn+8RSLQd6z68TGBhL9NPnfvJQ56YmQFK/BvtOFxHRgKS7dpFIlyfubIcloOSNtyJcD5pxLEpaqf6yQ1VQBvqMMoDFgx0cHLdleuB+b/xw/O2oEMgEPo1433vM9YwPRh9wcf6dMRaDafaWLFAbuKyGXrzQoHu7rE9IisNdLbe92RxHvyYTO65O5a+ktosmdB+b3ztMWfnoi118o9M0a19mO4+ilichCX0Ol1wzZT0fX5DjUUJcxeMqQDDNXtGqlQ+J/Gdck2MimQYXQJDXU6QNxLV7Ep9+2D9AyNukVsYtlWLtchPIx6Noz4FiOXX/5PMVSRlZVaeNNztX1JMsB2xzn+cnvxzoLFJkXDEGurmQrP8Sx4De0OSVnER03lbdudV/LDveXWJTuQHncLH+O87JTPhYguH4lOod1a+jMvvZzyoUts+JQfoSrELxCx4UWZ9zYtHGUklH5SshuSyM7WzYI06TulcSTr+jTtbjIi2PRxLfhVJ+MMHuBaGV/9S78giFIjng1poTGLkMmKtTmI3zZe2jkDHh1oZNYY8JFQyBZYqRSFw1nLYnCNU84AiROsaR+Kfbh8ST5PrcBm21JDPcDYBNgGS1oB0g5+fugLWbzKWibktvzVScNwSQsTLFYwqjdDEtHfiV7ooF4UuoRaXVdUQ9/qY+mC+z+GOMs91xXpaL24mazRrlG4Wx98n0UaHTZoVDwMFvvymXBIoJS7IqHUXt+XKQGN+9x68Nh46o0Of1vXneCbEGCcJpTFPepigCuH/2vSM6uggcrfO76uCpLU+JweqjG2ZNiahQqvR/BnWCuqckkKCLoZbMe9K3HVtFSpu2KLhxnF9zjHS5jG+mfXJf9pID8f/TzWkxYrS2WMAWzZ1J/rQhrm2u1613fuZduPvFqcyVwBsUjdbYK4OMRwStkFO3tem6L/uR71xIwkqyh14NEwI99ANpQfcVwVbC0My1VN4Zo7H6EuIME1XjlJGw753qqxAMAkTBt7AwdrsRO1q513Zj8Em8CN/9wUX+3uBuN8Yz0G3sOwX1t8DKYSUiE+wVqiojvgk9JJmAc2mP5ukWXGrf1CZiSoXLCbkZy1eNv11E7S9+BI1iv5I8jkjU7IlIy/6txiq5QgJbOpSRz+F5lruyX3gKmN3+4XuDYx4A4jwA4m/RqCgtnaTP1w7QJdr5dOQy+2K7ykY+QBeHmgKEQmb2fmF71iqb9+w7dGwYxFFHKadrG1p0XaeiP6briTMgDVlsEPNYACF/dWy0BtK0HDI5M1FnWTzkqFuC39eGjwAPRGl7jcI2J2SB59Ojv3gqpl09oIQl3jPZwt44gAJQtopBYzCYn+RHPjUmB6/eHUe8jI44QXs2XUrBPeoovkC497dxCwKfiboxQrO7cfQGOe7SGb24AAxDZa2ddUZratE89FL2LR86dez8x6m6vtBTiMLN2o79Bspq0t6y9eWKiqat0v0GaNQqBw65YAipJ8adq6LmtbO1JtMP+u9I4Ip9JfVHeuLE2O2+jkwYQly2K89LVUrRj9tx+omrOEuAAQRBtu4ZkwUlfGA5XefBk8EKh6bYrBMCzyalzKr3SyeGoX6zfaibnfHFpOiHjABZ8isV90kIK2wj9Z5jiwXX42PFq2rl+rnSNLiIn/ZmNy+TXcoRtzeqga7OdFaQgmdIKqfEyACRAJtHmB+Yqvyo2DXvm+N8/EcIR6EvXvTO97WkuxCe49K9JVn/t74YycW62brzRlcGFnQOQaHlTClZgrToAI7yjKhK/LFJ+gDqxRT7a6ROsKwfTY1JGLqLIrR3pha8T9Mb0MW7x+5hvRAIjoLG2x7fbtXKr/uhkAhb3SWQxsi7XsmVYZ82f8SY4IfOAAA;" vertex="1" parent="1">
          <mxGeometry x="290" y="80" width="146" height="280" as="geometry" />
        </mxCell>
        <mxCell id="7Hq6g_Avix6fBymQImAf-4" value="" style="endArrow=none;html=1;rounded=0;entryX=0.205;entryY=0.071;entryDx=0;entryDy=0;entryPerimeter=0;strokeColor=light-dark(#000000,#FFFFFF);" edge="1" parent="1" target="7Hq6g_Avix6fBymQImAf-1">
          <mxGeometry width="50" height="50" relative="1" as="geometry">
            <mxPoint x="230" y="130" as="sourcePoint" />
            <mxPoint x="260" y="150" as="targetPoint" />
          </mxGeometry>
        </mxCell>
      </root>
    </mxGraphModel>
  </diagram>
</mxfile>
